<?xml version="1.0" encoding="UTF-8"?>
<svg id="Layer_2" data-name="Layer 2" xmlns="http://www.w3.org/2000/svg" viewBox="0 0 298.2 113.56">
  <defs>
    <style>
      .cls-1 {
        fill: #1d1d1b;
        stroke: #000;
        stroke-miterlimit: 10;
        stroke-width: 2px;
      }
    </style>
  </defs>
  <g id="Logos_complete" data-name="Logos complete">
    <g id="black">
      <g id="icon">
        <polygon points="235.09 106 243.23 106 249.23 92.84 255.23 106 263.37 106 249.23 75 235.09 106"/>
        <polygon points="222.51 103.08 230.65 103.08 251.98 56.28 273.32 103.08 281.46 103.08 251.98 38.43 222.51 103.08"/>
        <polygon points="249.87 17.85 290.06 106 298.2 106 249.87 0 201.54 106 209.68 106 249.87 17.85"/>
      </g>
      <g id="text">
        <path class="cls-1" d="M6.53,105.15H1V17.18H6.53V105.15Zm21.86,0h-5.92L6.66,58.98,21.06,17.18h5.79L12.45,58.98l15.95,46.17Z"/>
        <path class="cls-1" d="M69.8,93.96c0,6.56-5.4,11.96-11.96,11.96s-12.09-5.4-12.09-11.96V17.18h5.53V93.96c0,3.6,2.96,6.43,6.56,6.43s6.43-2.83,6.43-6.43V17.18h5.53V93.96Z"/>
        <path class="cls-1" d="M118.54,107.33l-20.06-60.83v58.64h-5.53V15l20.06,59.67V17.18h5.53V107.33Z"/>
        <path class="cls-1" d="M165.1,105.15h-5.53l-2.31-16.59h-13.5l-2.44,16.59h-5.53l14.79-91.82,14.53,91.82Zm-8.62-21.6l-5.92-41.28-6.04,41.28h11.96Z"/>
      </g>
    </g>
  </g>
</svg>