<?xml version="1.0" encoding="UTF-8"?>
<svg id="Layer_2" data-name="Layer 2" xmlns="http://www.w3.org/2000/svg" viewBox="0 0 297.95 116.27">
  <defs>
    <style>
      .cls-1, .cls-2 {
        fill: #f25430;
      }

      .cls-2 {
        stroke: #f25430;
        stroke-miterlimit: 10;
        stroke-width: 3px;
      }
    </style>
  </defs>
  <g id="Logos">
    <g id="all_orange_wide" data-name="all orange wide">
      <g>
        <polygon class="cls-1" points="249.62 17.85 289.81 106 297.95 106 249.62 0 201.29 106 209.42 106 249.62 17.85" />
        <polygon class="cls-1" points="222.26 103.08 230.39 103.08 251.73 56.28 273.07 103.08 281.21 103.08 251.73 38.43 222.26 103.08" />
        <polygon class="cls-1" points="234.84 106 242.98 106 248.98 92.84 254.98 106 263.12 106 248.98 75 234.84 106" />
      </g>
      <g>
        <path class="cls-2" d="M7.03,104.75H1.5V16.79H7.03V104.75Zm21.86,0h-5.92L7.16,58.58,21.56,16.79h5.79L12.95,58.58l15.95,46.17Z" />
        <path class="cls-2" d="M70.3,93.56c0,6.56-5.4,11.96-11.96,11.96s-12.09-5.4-12.09-11.96V16.79h5.53V93.56c0,3.6,2.96,6.43,6.56,6.43s6.43-2.83,6.43-6.43V16.79h5.53V93.56Z" />
        <path class="cls-2" d="M119.04,106.94l-20.06-60.83v58.64h-5.53V14.6l20.06,59.67V16.79h5.53V106.94Z" />
        <path class="cls-2" d="M165.6,104.75h-5.53l-2.31-16.59h-13.5l-2.44,16.59h-5.53l14.79-91.82,14.53,91.82Zm-8.62-21.6l-5.92-41.28-6.04,41.28h11.96Z" />
      </g>
    </g>
  </g>
</svg>