<?xml version="1.0" encoding="UTF-8"?>
<svg id="Layer_2" data-name="Layer 2" xmlns="http://www.w3.org/2000/svg" viewBox="0 0 101.6 114.14">
  <g id="Logos">
    <g id="icon_black" data-name="icon black">
      <g>
        <path id="_3rd_line_L" data-name="3rd line L" d="M49.53,86.72c-.15,.31-.29,.59-.4,.8l-11.19,25.02c.96,0,1.93,0,2.79,.01l10.17-22.73c-.46-1.03-.92-2.07-1.37-3.1Z"/>
        <path d="M41.56,113.84h-.84c-.86-.01-1.82-.02-2.78-.02h-1.98s12.42-27.68,12.42-27.68l1.23-2.48,1.1,2.54c.45,1.03,.9,2.06,1.36,3.09l.23,.52-10.74,24.02Z"/>
      </g>
      <g>
        <path id="_3rd_line_R" data-name="3rd line R" d="M52.38,93.12c-.48-1.04-.94-2.09-1.41-3.13-.48-1.09-.97-2.18-1.44-3.27-.29,.58-.52,1.04-.57,1.16-.09,.2-.71,1.45-1.26,2.6l9.31,22.1c1.22-.1,2.41-.19,3.47-.25l-8.1-19.21Z"/>
        <path d="M56.19,113.94l-9.9-23.49,.25-.52c.31-.65,.64-1.33,.89-1.83,.18-.38,.32-.65,.36-.74,.04-.09,.16-.34,.34-.69l1.49-3.01,1.1,2.55c.47,1.09,.95,2.17,1.43,3.26,.46,1.04,.93,2.08,1.41,3.12l.02,.04,8.81,20.91-1.83,.09c-1.04,.05-2.22,.14-3.42,.24l-.93,.08Zm-7.08-23.43l8.73,20.71c.25-.02,.51-.04,.75-.06l-7.38-17.53c-.48-1.04-.94-2.08-1.41-3.13-.11-.25-.22-.49-.33-.74-.11,.23-.24,.49-.36,.74Z"/>
      </g>
      <g>
        <path id="_2nd_line_L" data-name="2nd line L" d="M47.93,46.86c-.09,.2-.17,.39-.26,.59-.09,.2-.7,1.44-1.24,2.59l-.86,1.94c-.03,.08-.04,.14-.03,.15,0,0-.02-.02-.02-.02l-25.3,56.71c.89,0,1.81,0,2.68-.01l26.42-59.23c-.43-.8-1.03-1.81-1.38-2.71Z"/>
        <path d="M18.22,110.11l26.78-60.04h0s.25-.56,.25-.56c.31-.67,.64-1.33,.88-1.83,.19-.39,.33-.67,.36-.76l1.5-3.41,1.13,2.87c.25,.65,.67,1.4,1.04,2.06l.58,1.07-27.02,60.57h-.83c-.87,0-1.79,0-2.67,.01h-2Zm27.32-57.98l1.03,.46,.24-.53c-.01-.32-.15-.67-.48-.93l-.78,1.01Z"/>
      </g>
      <g>
        <path id="_2nd_line_R" data-name="2nd line R" d="M51.81,54.93s0,.02,0,.03c0-.02,0-.04,0-.06l-1.49-3.44c-.26-.45-.5-.86-.64-1.19-.37-.83-1.27-2.23-1.74-3.43-.09,.2-.17,.39-.26,.59-.07,.17-.53,1.09-1,2.08l25.69,59.28c1.07-.05,2.07-.12,2.28-.12,.07,0,.24,0,.46-.02l-23.29-53.74Z"/>
        <path d="M71.53,110.14l-26.28-60.64,.86-1.79c.19-.4,.34-.7,.37-.78l1.5-3.41,1.13,2.87c.25,.63,.66,1.38,1.02,2.03,.28,.51,.54,.98,.7,1.34,.07,.15,.16,.32,.26,.51l.02-.15,1.87,4.29,24.03,55.45-1.86,.08c-.25,.01-.44,.02-.52,.02-.11,0-.41,.02-.81,.04l-2.3,.12Zm-20.91-54.72l2.96,6.84-2.95-6.82,1.05-.46h-.08s-.98,.43-.98,.43Z"/>
      </g>
      <g>
        <path id="_1st_line_L" data-name="1st line L" d="M51.89,6.51c-.49-1.09-.97-2.19-1.45-3.28-.39,.89-.78,1.77-1.17,2.65-.49,1.11-.99,2.21-1.49,3.32,.08-.16-.55,1.32-.64,1.36L1.97,112.7c1.33,0,2.87,.01,4.21,.03L52.52,7.92c-.21-.47-.42-.94-.63-1.41Z"/>
        <path d="M7.01,114.03h-.85c-1.33-.02-2.87-.03-4.19-.04H0S46.24,9.5,46.24,9.5c.13-.29,.29-.66,.34-.78l1.19,.47h0s-1.17-.54-1.17-.54l.41-.9c.36-.8,.72-1.6,1.08-2.4,.39-.88,.78-1.76,1.16-2.64l1.18-2.71,1.17,2.71c.47,1.09,.96,2.18,1.44,3.27h0s.87,1.93,.87,1.93l-.23,.52L7.01,114.03Zm-3.07-2.6c.47,0,.94,0,1.4,.01L51.11,7.92l-.4-.89c-.09-.2-.18-.41-.27-.61-.49,1.1-.99,2.21-1.49,3.31h0s0,0,0,0c-.13,.43-.36,.97-.65,1.39L3.94,111.43Z"/>
      </g>
      <g>
        <path id="_1st_line_R" data-name="1st line R" d="M51.18,4.76l-1.77,.78c-.05,.11-.1,.22-.15,.33-.3,.68-.61,1.35-.91,2.03,16.65,37.62,32.1,72.03,47.11,104.91,1.3-.06,2.83-.14,4.16-.19-15.42-33.76-31.29-69.1-48.44-107.87Z"/>
        <path d="M94.66,114.14l-.36-.79c-15.04-32.95-30.46-67.26-47.12-104.92l-.23-.53,1.49-3.33,3.4-1.5,.52,1.18c17.15,38.76,32.99,74.04,48.44,107.85l.8,1.75-1.92,.07c-.82,.03-1.72,.07-2.59,.11l-2.42,.11ZM49.77,7.91c16.44,37.14,31.66,71.04,46.51,103.58l.68-.03c.23-.01,.47-.02,.7-.03-15.04-32.95-30.48-67.32-47.13-104.97l-.14,.06-.63,1.39Z"/>
      </g>
    </g>
  </g>
</svg>