<?xml version="1.0" encoding="UTF-8"?>
<svg id="Layer_2" data-name="Layer 2" xmlns="http://www.w3.org/2000/svg" viewBox="0 0 75 75">
  <defs>
    <style>
      .cls-1 {
        fill: #011140;
      }

      .cls-2 {
        fill: #fff;
      }

      .cls-3 {
        fill: none;
        stroke: #fff;
        stroke-miterlimit: 10;
        stroke-width: 5px;
      }
    </style>
  </defs>
  <g id="Icons">
    <g id="twitter_white" data-name="twitter white">
      <rect class="cls-3" x="2.5" y="2.5" width="70" height="70" rx="12" ry="12"/>
      <g id="twitter">
        <path id="Path_72" data-name="Path 72" class="cls-2" d="M61.5,22.18c-.49,.93-1.09,1.79-1.79,2.57-.93,1.08-2.02,2-3.24,2.73,.04,.29,.06,.55,.08,.8,.05,3.82-.65,7.61-2.06,11.16-2.21,5.98-6.32,11.09-11.69,14.53-5.65,3.24-12.24,3.93-18.3,3.34-4-.34-7.81-1.82-11-4.25,5.25,.53,10.5-.98,14.66-4.23-4.5,.11-7.77-3.14-9.31-6.9,.68,.15,1.39,.19,2.09,.11,.79-.06,1.58-.17,2.35-.32-2.83-.77-5.24-2.64-6.69-5.19-.74-1.53-1.13-3.22-1.12-4.92,1.35,.81,2.87,1.27,4.44,1.34-2.24-1.89-4.03-4.31-4.36-7.09-.14-2.2,.27-4.4,1.2-6.39,3.15,3.64,7.05,6.56,11.43,8.56,2.84,1.2,5.88,1.84,8.96,1.87-.45-2.6-.02-5.27,1.2-7.6,1.41-2.23,3.62-3.84,6.18-4.5,3.34-.86,6.88,.24,9.15,2.84,2.26-.33,4.43-1.13,6.37-2.36-.68,2.38-2.25,4.41-4.39,5.67,2.01-.37,3.96-.96,5.84-1.76Z"/>
      </g>
      <circle class="cls-1" cx="48.27" cy="23.82" r="1"/>
    </g>
  </g>
</svg>